<svg width="40" height="40" viewBox="0 0 40 40" fill="none" xmlns="http://www.w3.org/2000/svg">
<rect width="40" height="40" rx="4" fill="#D0BCFF" fill-opacity="0.1"/>
<rect x="0.5" y="0.5" width="39" height="39" rx="3.5" stroke="#D0BCFF" stroke-opacity="0.2"/>
<path d="M10.5625 19.725C10.3791 19.525 10.2875 19.2875 10.2875 19.0125C10.2875 18.7375 10.3791 18.5 10.5625 18.3L13.3625 15.5L12.2875 14.425L11.9875 14.725C11.7875 14.925 11.55 15.025 11.275 15.025C11 15.025 10.7625 14.925 10.5625 14.725C10.3791 14.5417 10.2875 14.3083 10.2875 14.025C10.2875 13.7417 10.3791 13.5083 10.5625 13.325L12.5625 11.325C12.7625 11.125 13 11.025 13.275 11.025C13.55 11.025 13.7875 11.125 13.9875 11.325C14.1708 11.5083 14.2625 11.7417 14.2625 12.025C14.2625 12.3083 14.1708 12.5417 13.9875 12.725L13.6875 13.025L14.7625 14.1L17.5625 11.3C17.7625 11.1 18 11 18.275 11C18.55 11 18.7875 11.1 18.9875 11.3C19.1875 11.5 19.2875 11.7375 19.2875 12.0125C19.2875 12.2875 19.1875 12.525 18.9875 12.725L18.3125 13.375L25.6875 20.75C26.0708 21.1333 26.2625 21.6042 26.2625 22.1625C26.2625 22.7208 26.0708 23.1917 25.6875 23.575L24.9875 24.3L29.7125 29H26.8625L23.5625 25.7L22.8625 26.425C22.4791 26.8083 22.0083 27 21.45 27C20.8916 27 20.4208 26.8083 20.0375 26.425L12.6625 19.05L11.9875 19.725C11.7875 19.9083 11.55 20 11.275 20C11 20 10.7625 19.9083 10.5625 19.725ZM14.0625 17.65L21.4375 25.025L24.2625 22.175L22.7625 20.65L21.3625 22.05C21.1625 22.2333 20.925 22.3292 20.65 22.3375C20.375 22.3458 20.1458 22.2583 19.9625 22.075C19.7625 21.875 19.6625 21.6375 19.6625 21.3625C19.6625 21.0875 19.7625 20.85 19.9625 20.65L21.3625 19.25L19.8625 17.75L18.4625 19.15C18.2625 19.3333 18.025 19.425 17.75 19.425C17.475 19.425 17.2375 19.3333 17.0375 19.15C16.8541 18.95 16.7625 18.7125 16.7625 18.4375C16.7625 18.1625 16.8541 17.925 17.0375 17.725L18.4375 16.325L16.9125 14.8L14.0625 17.65ZM14.0625 17.65L16.9125 14.8L14.0625 17.65Z" fill="#D0BCFF"/>
</svg>
